<svg width="126" height="28" viewBox="0 0 126 28" fill="none" xmlns="http://www.w3.org/2000/svg">
    <path d="M2.61918 12.1947H0L3.99086 0.659023H7.14065L11.1259 12.1947H8.50669L5.61091 3.29511H5.5206L2.61918 12.1947ZM2.45548 7.66043H8.64216V9.56427H2.45548V7.66043Z" fill="black"/>
    <path d="M12.4721 12.1947V3.54295H14.7639V5.0694H14.8655C15.0462 4.56246 15.3472 4.16254 15.7687 3.86964C16.1902 3.57675 16.6944 3.4303 17.2815 3.4303C17.8761 3.4303 18.3822 3.57862 18.7999 3.87528C19.2177 4.16818 19.4961 4.56622 19.6354 5.0694H19.7257C19.9026 4.57373 20.2224 4.17756 20.6853 3.88091C21.1519 3.5805 21.7032 3.4303 22.3392 3.4303C23.1483 3.4303 23.805 3.68752 24.3093 4.20197C24.8173 4.71267 25.0713 5.4374 25.0713 6.37618V12.1947H22.6723V6.84933C22.6723 6.36867 22.5443 6.00818 22.2884 5.76785C22.0325 5.52753 21.7127 5.40736 21.3288 5.40736C20.8923 5.40736 20.5517 5.5463 20.3071 5.82418C20.0625 6.0983 19.9402 6.46067 19.9402 6.91128V12.1947H17.6089V6.79863C17.6089 6.3743 17.4866 6.03634 17.242 5.78475C17.0011 5.53316 16.6832 5.40736 16.288 5.40736C16.0208 5.40736 15.78 5.47495 15.5655 5.61014C15.3547 5.74157 15.1873 5.92745 15.0631 6.16777C14.9389 6.40435 14.8768 6.68222 14.8768 7.00141V12.1947H12.4721Z" fill="black"/>
    <path d="M30.9221 12.3637C30.0302 12.3637 29.2626 12.1835 28.619 11.823C27.9793 11.4587 27.4863 10.9443 27.1401 10.2796C26.7939 9.61121 26.6208 8.82076 26.6208 7.90827C26.6208 7.01831 26.7939 6.23724 27.1401 5.56508C27.4863 4.89291 27.9737 4.36907 28.6021 3.99356C29.2343 3.61805 29.9757 3.4303 30.8262 3.4303C31.3982 3.4303 31.9307 3.5223 32.4236 3.7063C32.9204 3.88654 33.3531 4.15879 33.7219 4.52303C34.0945 4.88728 34.3843 5.3454 34.5912 5.8974C34.7982 6.44565 34.9017 7.08778 34.9017 7.82378V8.4828H27.5804V6.99578H32.6381C32.6381 6.65031 32.5629 6.34426 32.4123 6.07765C32.2618 5.81104 32.053 5.60263 31.7858 5.45242C31.5223 5.29846 31.2156 5.22148 30.8657 5.22148C30.5006 5.22148 30.177 5.30597 29.8948 5.47495C29.6163 5.64018 29.398 5.86361 29.24 6.14524C29.0819 6.42312 29.001 6.73292 28.9972 7.07463V8.48843C28.9972 8.91652 29.0763 9.2864 29.2343 9.59807C29.3961 9.90974 29.6238 10.1501 29.9173 10.319C30.2109 10.488 30.559 10.5725 30.9616 10.5725C31.2288 10.5725 31.4734 10.535 31.6955 10.4599C31.9175 10.3848 32.1075 10.2721 32.2656 10.1219C32.4236 9.9717 32.5441 9.7877 32.6268 9.56991L34.8509 9.71635C34.738 10.2496 34.5066 10.7152 34.1566 11.1133C33.8104 11.5075 33.3625 11.8155 32.8131 12.037C32.2675 12.2548 31.6371 12.3637 30.9221 12.3637Z" fill="black"/>
    <path d="M36.4709 12.1947V3.54295H38.8022V5.0525H38.8925C39.0506 4.51552 39.3159 4.10997 39.6885 3.83585C40.061 3.55797 40.49 3.41903 40.9755 3.41903C41.0959 3.41903 41.2257 3.42654 41.365 3.44156C41.5042 3.45658 41.6265 3.47723 41.7319 3.50352V5.63267C41.619 5.59887 41.4628 5.56883 41.2634 5.54255C41.0639 5.51626 40.8814 5.50312 40.7158 5.50312C40.3621 5.50312 40.046 5.5801 39.7675 5.73406C39.4928 5.88426 39.2745 6.09455 39.1127 6.36492C38.9546 6.63528 38.8756 6.94696 38.8756 7.29994V12.1947H36.4709Z" fill="black"/>
    <path d="M42.9751 12.1947V3.54295H45.3798V12.1947H42.9751ZM44.1831 2.42768C43.8256 2.42768 43.5189 2.30939 43.263 2.07282C43.0109 1.8325 42.8848 1.54523 42.8848 1.21102C42.8848 0.880574 43.0109 0.597063 43.263 0.360491C43.5189 0.120164 43.8256 0 44.1831 0C44.5406 0 44.8454 0.120164 45.0976 0.360491C45.3535 0.597063 45.4814 0.880574 45.4814 1.21102C45.4814 1.54523 45.3535 1.8325 45.0976 2.07282C44.8454 2.30939 44.5406 2.42768 44.1831 2.42768Z" fill="black"/>
    <path d="M51.2236 12.3637C50.3355 12.3637 49.5715 12.176 48.9318 11.8004C48.2958 11.4212 47.8066 10.8955 47.4641 10.2233C47.1255 9.55113 46.9561 8.77758 46.9561 7.90263C46.9561 7.01643 47.1273 6.23912 47.4698 5.57071C47.816 4.89855 48.3071 4.37471 48.9431 3.9992C49.5791 3.61993 50.3355 3.4303 51.2123 3.4303C51.9687 3.4303 52.631 3.56736 53.1992 3.84148C53.7675 4.1156 54.2172 4.5005 54.5484 4.99618C54.8795 5.49185 55.062 6.07389 55.0959 6.74231H52.8267C52.7627 6.31047 52.5934 5.96312 52.3187 5.70026C52.0477 5.43365 51.6921 5.30034 51.2518 5.30034C50.8792 5.30034 50.5537 5.40173 50.2753 5.60451C50.0005 5.80353 49.786 6.09455 49.6317 6.47757C49.4775 6.86059 49.4003 7.32435 49.4003 7.86884C49.4003 8.42084 49.4756 8.89023 49.6261 9.27701C49.7804 9.66378 49.9968 9.95856 50.2753 10.1613C50.5537 10.3641 50.8792 10.4655 51.2518 10.4655C51.5265 10.4655 51.773 10.4092 51.9913 10.2965C52.2133 10.1839 52.3958 10.0205 52.5388 9.80648C52.6856 9.58868 52.7815 9.3277 52.8267 9.02354H55.0959C55.0583 9.68444 54.8776 10.2665 54.554 10.7697C54.2341 11.2691 53.792 11.6596 53.2275 11.9413C52.663 12.2229 51.995 12.3637 51.2236 12.3637Z" fill="black"/>
    <path d="M59.1079 12.3581C58.5547 12.3581 58.0618 12.2623 57.629 12.0708C57.1962 11.8755 56.8538 11.5883 56.6016 11.209C56.3533 10.826 56.2291 10.3491 56.2291 9.77831C56.2291 9.29766 56.3175 8.89399 56.4944 8.56729C56.6713 8.2406 56.9121 7.97774 57.2169 7.77872C57.5217 7.5797 57.868 7.42949 58.2556 7.3281C58.6469 7.22672 59.0571 7.15537 59.4861 7.11406C59.9904 7.06149 60.3968 7.01267 60.7054 6.96761C61.014 6.9188 61.2379 6.84745 61.3771 6.75357C61.5164 6.65969 61.586 6.52075 61.586 6.33675V6.30296C61.586 5.94622 61.4731 5.67022 61.2473 5.47495C61.0253 5.27969 60.7092 5.18206 60.299 5.18206C59.8662 5.18206 59.5219 5.27781 59.266 5.46932C59.0101 5.65708 58.8407 5.89365 58.7579 6.17904L56.5339 5.99879C56.6468 5.47308 56.8688 5.01871 57.2 4.63569C57.5311 4.24891 57.9583 3.95226 58.4814 3.74572C59.0082 3.53544 59.6178 3.4303 60.3103 3.4303C60.792 3.4303 61.2529 3.48662 61.6932 3.59928C62.1373 3.71193 62.5305 3.88654 62.873 4.12311C63.2192 4.35969 63.492 4.66385 63.6915 5.03561C63.8909 5.40361 63.9907 5.84483 63.9907 6.35928V12.1947H61.7102V10.995H61.6424C61.5032 11.2653 61.3169 11.5038 61.0836 11.7103C60.8503 11.9131 60.5699 12.0727 60.2425 12.1891C59.9151 12.3017 59.5369 12.3581 59.1079 12.3581ZM59.7966 10.7021C60.1503 10.7021 60.4627 10.6326 60.7336 10.4937C61.0046 10.351 61.2172 10.1595 61.3715 9.91913C61.5258 9.6788 61.6029 9.40656 61.6029 9.10239V8.18427C61.5277 8.23308 61.4242 8.27815 61.2925 8.31945C61.1645 8.357 61.0196 8.39268 60.8578 8.42647C60.696 8.45651 60.5342 8.48468 60.3724 8.51096C60.2105 8.53349 60.0638 8.55415 59.9321 8.57292C59.6498 8.61423 59.4033 8.67994 59.1926 8.77007C58.9819 8.86019 58.8182 8.98223 58.7015 9.13619C58.5848 9.2864 58.5265 9.47415 58.5265 9.69946C58.5265 10.0262 58.6451 10.2759 58.8821 10.4486C59.123 10.6176 59.4278 10.7021 59.7966 10.7021Z" fill="black"/>
    <path d="M68.2609 7.19292V12.1947H65.8563V3.54295H68.148V5.0694H68.2496C68.4416 4.56622 68.7633 4.16818 69.2149 3.87528C69.6665 3.57862 70.214 3.4303 70.8575 3.4303C71.4596 3.4303 71.9846 3.56173 72.4324 3.82458C72.8803 4.08744 73.2283 4.46295 73.4767 4.95112C73.7251 5.43553 73.8493 6.01381 73.8493 6.68598V12.1947H71.4446V7.11406C71.4484 6.58459 71.3129 6.17153 71.0382 5.87487C70.7635 5.57447 70.3853 5.42426 69.9036 5.42426C69.5799 5.42426 69.2939 5.49373 69.0456 5.63267C68.8009 5.77161 68.609 5.97438 68.4698 6.241C68.3343 6.50386 68.2647 6.82116 68.2609 7.19292Z" fill="black"/>
    <path d="M79.4686 12.1947V0.659023H84.0974C84.9479 0.659023 85.6572 0.784819 86.2255 1.03641C86.7937 1.288 87.2208 1.63723 87.5068 2.08409C87.7928 2.52719 87.9358 3.03789 87.9358 3.61617C87.9358 4.06679 87.8455 4.46295 87.6649 4.80467C87.4842 5.14263 87.2359 5.42051 86.9198 5.6383C86.6074 5.85234 86.2499 6.00443 85.8473 6.09455V6.2072C86.2875 6.22598 86.6996 6.3499 87.0835 6.57896C87.4711 6.80802 87.7853 7.12908 88.0261 7.54214C88.267 7.95145 88.3874 8.43962 88.3874 9.00664C88.3874 9.61872 88.235 10.1651 87.9302 10.6457C87.6291 11.1226 87.1832 11.5 86.5924 11.7779C86.0015 12.0558 85.2734 12.1947 84.4078 12.1947H79.4686ZM81.9128 10.2008H83.9054C84.5866 10.2008 85.0833 10.0712 85.3957 9.81211C85.708 9.54925 85.8642 9.20003 85.8642 8.76443C85.8642 8.44525 85.787 8.16362 85.6328 7.91953C85.4785 7.67545 85.2583 7.48394 84.9723 7.345C84.6901 7.20606 84.3533 7.13659 83.9619 7.13659H81.9128V10.2008ZM81.9128 5.48622H83.7248C84.0597 5.48622 84.357 5.42802 84.6167 5.31161C84.8801 5.19144 85.0871 5.02246 85.2376 4.80467C85.3919 4.58687 85.4691 4.32589 85.4691 4.02173C85.4691 3.60491 85.3204 3.26883 85.0231 3.01348C84.7296 2.75813 84.3119 2.63046 83.77 2.63046H81.9128V5.48622Z" fill="black"/>
    <path d="M95.4928 8.51096V3.54295H97.8975V12.1947H95.5887V10.6232H95.4984C95.3027 11.1302 94.9772 11.5376 94.5219 11.8455C94.0703 12.1534 93.519 12.3074 92.868 12.3074C92.2884 12.3074 91.7785 12.176 91.3382 11.9131C90.8979 11.6502 90.5536 11.2766 90.3052 10.7922C90.0606 10.3078 89.9364 9.72762 89.9327 9.0517V3.54295H92.3373V8.62362C92.3411 9.13431 92.4785 9.53799 92.7494 9.83464C93.0204 10.1313 93.3835 10.2796 93.8389 10.2796C94.1286 10.2796 94.3996 10.2139 94.6517 10.0825C94.9038 9.9473 95.107 9.74827 95.2613 9.48541C95.4194 9.22256 95.4965 8.89774 95.4928 8.51096Z" fill="black"/>
    <path d="M99.8209 12.1947V3.54295H102.226V12.1947H99.8209ZM101.029 2.42768C100.671 2.42768 100.365 2.30939 100.109 2.07282C99.8567 1.8325 99.7306 1.54523 99.7306 1.21102C99.7306 0.880574 99.8567 0.597063 100.109 0.360491C100.365 0.120164 100.671 0 101.029 0C101.386 0 101.691 0.120164 101.943 0.360491C102.199 0.597063 102.327 0.880574 102.327 1.21102C102.327 1.54523 102.199 1.8325 101.943 2.07282C101.691 2.30939 101.386 2.42768 101.029 2.42768Z" fill="black"/>
    <path d="M106.557 0.659023V12.1947H104.152V0.659023H106.557Z" fill="black"/>
    <path d="M111.678 12.3355C111.019 12.3355 110.423 12.1666 109.888 11.8286C109.358 11.4869 108.936 10.9856 108.624 10.3247C108.315 9.66003 108.161 8.84517 108.161 7.8801C108.161 6.88875 108.321 6.06451 108.641 5.40736C108.961 4.74646 109.386 4.25267 109.917 3.92597C110.451 3.59552 111.036 3.4303 111.672 3.4303C112.158 3.4303 112.562 3.51291 112.886 3.67813C113.213 3.8396 113.477 4.04238 113.676 4.28646C113.879 4.52679 114.034 4.76336 114.139 4.99618H114.212V0.659023H116.611V12.1947H114.241V10.8091H114.139C114.026 11.0494 113.866 11.2879 113.659 11.5244C113.456 11.7573 113.191 11.9506 112.863 12.1046C112.54 12.2586 112.144 12.3355 111.678 12.3355ZM112.44 10.4261C112.827 10.4261 113.155 10.3209 113.422 10.1106C113.693 9.8966 113.9 9.59807 114.043 9.21505C114.19 8.83203 114.263 8.38329 114.263 7.86884C114.263 7.35439 114.192 6.90753 114.049 6.52826C113.906 6.149 113.699 5.8561 113.428 5.64957C113.157 5.44304 112.827 5.33977 112.44 5.33977C112.045 5.33977 111.712 5.44679 111.441 5.66083C111.17 5.87487 110.965 6.17153 110.825 6.55079C110.686 6.93006 110.617 7.36941 110.617 7.86884C110.617 8.37203 110.686 8.81701 110.825 9.20378C110.968 9.5868 111.174 9.88721 111.441 10.105C111.712 10.3191 112.045 10.4261 112.44 10.4261Z" fill="black"/>
    <path d="M125.802 6.01006L123.601 6.14524C123.563 5.95749 123.482 5.78851 123.358 5.6383C123.234 5.48434 123.07 5.3623 122.867 5.27218C122.668 5.1783 122.429 5.13136 122.15 5.13136C121.778 5.13136 121.463 5.21022 121.208 5.36793C120.952 5.52189 120.824 5.72842 120.824 5.98753C120.824 6.19406 120.907 6.36867 121.072 6.51137C121.238 6.65406 121.522 6.76859 121.924 6.85496L123.494 7.17039C124.337 7.34312 124.965 7.621 125.379 8.00402C125.793 8.38704 126 8.89023 126 9.51358C126 10.0806 125.833 10.5782 125.498 11.0062C125.166 11.4343 124.711 11.7685 124.132 12.0089C123.556 12.2454 122.892 12.3637 122.139 12.3637C120.991 12.3637 120.077 12.1253 119.396 11.6484C118.718 11.1677 118.321 10.5143 118.205 9.68819L120.57 9.56427C120.641 9.9135 120.814 10.1801 121.089 10.3641C121.364 10.5444 121.716 10.6345 122.145 10.6345C122.566 10.6345 122.905 10.5537 123.161 10.3923C123.42 10.227 123.552 10.0149 123.556 9.75578C123.552 9.53799 123.46 9.35962 123.279 9.22068C123.099 9.07799 122.82 8.96909 122.444 8.89398L120.942 8.59545C120.096 8.42647 119.465 8.13357 119.051 7.71676C118.641 7.29994 118.436 6.76859 118.436 6.12271C118.436 5.56695 118.587 5.08818 118.888 4.68638C119.192 4.28458 119.62 3.97479 120.169 3.75699C120.722 3.53919 121.369 3.4303 122.111 3.4303C123.206 3.4303 124.068 3.66124 124.696 4.12311C125.328 4.58499 125.697 5.21397 125.802 6.01006Z" fill="black"/>
    <path d="M0 25.8596V18.6498H4.33237V19.4243H0.874941V21.8604H4.0078V22.6349H0.874941V25.8596H0Z" fill="black"/>
    <path d="M8.79351 23.6488V20.4522H9.62612V25.8596H8.79351V24.9443H8.73706C8.61006 25.2189 8.41249 25.4524 8.14436 25.6448C7.87624 25.8349 7.53755 25.93 7.1283 25.93C6.78961 25.93 6.48856 25.8561 6.22514 25.7082C5.96171 25.558 5.75474 25.3327 5.60421 25.0323C5.45368 24.7295 5.37842 24.3482 5.37842 23.8882V20.4522H6.21102V23.8318C6.21102 24.2261 6.32157 24.5406 6.54265 24.7753C6.76609 25.01 7.05069 25.1273 7.39643 25.1273C7.6034 25.1273 7.81391 25.0745 8.02794 24.9689C8.24432 24.8633 8.42543 24.7014 8.57125 24.4831C8.71943 24.2648 8.79351 23.9867 8.79351 23.6488Z" fill="black"/>
    <path d="M13.5078 20.4522V21.1563H10.6995V20.4522H13.5078ZM11.518 19.1567H12.3506V24.3106C12.3506 24.5453 12.3847 24.7213 12.4529 24.8387C12.5235 24.9537 12.6129 25.0311 12.721 25.071C12.8316 25.1086 12.948 25.1273 13.0703 25.1273C13.162 25.1273 13.2373 25.1226 13.2961 25.1133C13.3549 25.1015 13.4019 25.0921 13.4372 25.0851L13.6066 25.8314C13.5501 25.8525 13.4713 25.8737 13.3702 25.8948C13.2691 25.9183 13.1409 25.93 12.9856 25.93C12.7504 25.93 12.52 25.8795 12.2942 25.7786C12.0707 25.6777 11.8849 25.524 11.7367 25.3174C11.5909 25.1109 11.518 24.8504 11.518 24.5359V19.1567Z" fill="black"/>
    <path d="M18.1753 23.6488V20.4522H19.0079V25.8596H18.1753V24.9443H18.1189C17.9919 25.2189 17.7943 25.4524 17.5262 25.6448C17.258 25.8349 16.9194 25.93 16.5101 25.93C16.1714 25.93 15.8704 25.8561 15.6069 25.7082C15.3435 25.558 15.1365 25.3327 14.986 25.0323C14.8355 24.7295 14.7602 24.3482 14.7602 23.8882V20.4522H15.5928V23.8318C15.5928 24.2261 15.7034 24.5406 15.9245 24.7753C16.1479 25.01 16.4325 25.1273 16.7782 25.1273C16.9852 25.1273 17.1957 25.0745 17.4097 24.9689C17.6261 24.8633 17.8072 24.7014 17.9531 24.4831C18.1012 24.2648 18.1753 23.9867 18.1753 23.6488Z" fill="black"/>
    <path d="M20.5329 25.8596V20.4522H21.3373V21.269H21.3937C21.4925 21.0014 21.6713 20.7843 21.93 20.6177C22.1887 20.451 22.4803 20.3677 22.8049 20.3677C22.8661 20.3677 22.9425 20.3689 23.0342 20.3713C23.126 20.3736 23.1954 20.3771 23.2424 20.3818V21.2267C23.2142 21.2197 23.1495 21.2091 23.0483 21.195C22.9496 21.1786 22.8449 21.1704 22.7344 21.1704C22.4709 21.1704 22.2357 21.2255 22.0288 21.3358C21.8241 21.4438 21.6619 21.594 21.5419 21.7865C21.4243 21.9766 21.3655 22.1937 21.3655 22.4377V25.8596H20.5329Z" fill="black"/>
    <path d="M26.3364 25.9722C25.8143 25.9722 25.3639 25.8572 24.9852 25.6272C24.6089 25.3949 24.3184 25.071 24.1138 24.6556C23.9115 24.2378 23.8104 23.752 23.8104 23.1981C23.8104 22.6443 23.9115 22.1561 24.1138 21.7337C24.3184 21.3089 24.603 20.9779 24.9676 20.7409C25.3345 20.5015 25.7626 20.3818 26.2518 20.3818C26.534 20.3818 26.8127 20.4288 27.0879 20.5226C27.3631 20.6165 27.6136 20.7691 27.8394 20.9803C28.0651 21.1892 28.2451 21.4661 28.3791 21.8111C28.5132 22.1561 28.5802 22.5809 28.5802 23.0855V23.4375H24.4031V22.7194H27.7335C27.7335 22.4143 27.6724 22.142 27.5501 21.9026C27.4301 21.6632 27.2584 21.4743 27.035 21.3358C26.8139 21.1974 26.5528 21.1281 26.2518 21.1281C25.9201 21.1281 25.6332 21.2103 25.3909 21.3746C25.151 21.5365 24.9664 21.7477 24.837 22.0082C24.7077 22.2688 24.643 22.548 24.643 22.8461V23.3249C24.643 23.7333 24.7136 24.0794 24.8547 24.3634C24.9982 24.645 25.1969 24.8598 25.4509 25.0076C25.7049 25.1532 26.0001 25.2259 26.3364 25.2259C26.5552 25.2259 26.7527 25.1954 26.9291 25.1344C27.1079 25.071 27.2619 24.9771 27.3913 24.8527C27.5207 24.726 27.6206 24.5688 27.6912 24.381L28.4956 24.6063C28.4109 24.8786 28.2686 25.118 28.0687 25.3245C27.8688 25.5287 27.6218 25.6883 27.3278 25.8033C27.0338 25.9159 26.7033 25.9722 26.3364 25.9722Z" fill="black"/>
    <path d="M34.8424 25.9722C34.3532 25.9722 33.924 25.8561 33.5547 25.6237C33.1878 25.3914 32.9008 25.0663 32.6939 24.6486C32.4893 24.2308 32.3869 23.7426 32.3869 23.1841C32.3869 22.6208 32.4893 22.1291 32.6939 21.709C32.9008 21.2889 33.1878 20.9627 33.5547 20.7303C33.924 20.498 34.3532 20.3818 34.8424 20.3818C35.3316 20.3818 35.7597 20.498 36.1266 20.7303C36.4959 20.9627 36.7828 21.2889 36.9874 21.709C37.1944 22.1291 37.2979 22.6208 37.2979 23.1841C37.2979 23.7426 37.1944 24.2308 36.9874 24.6486C36.7828 25.0663 36.4959 25.3914 36.1266 25.6237C35.7597 25.8561 35.3316 25.9722 34.8424 25.9722ZM34.8424 25.2259C35.214 25.2259 35.5198 25.1309 35.7597 24.9408C35.9996 24.7507 36.1772 24.5007 36.2924 24.1909C36.4077 23.8811 36.4653 23.5455 36.4653 23.1841C36.4653 22.8226 36.4077 22.4859 36.2924 22.1737C36.1772 21.8616 35.9996 21.6093 35.7597 21.4168C35.5198 21.2244 35.214 21.1281 34.8424 21.1281C34.4708 21.1281 34.165 21.2244 33.9251 21.4168C33.6852 21.6093 33.5077 21.8616 33.3924 22.1737C33.2772 22.4859 33.2195 22.8226 33.2195 23.1841C33.2195 23.5455 33.2772 23.8811 33.3924 24.1909C33.5077 24.5007 33.6852 24.7507 33.9251 24.9408C34.165 25.1309 34.4708 25.2259 34.8424 25.2259Z" fill="black"/>
    <path d="M40.982 20.4522V21.1563H38.0608V20.4522H40.982ZM38.9358 25.8596V19.7059C38.9358 19.3961 39.0087 19.1379 39.1545 18.9314C39.3003 18.7249 39.4897 18.57 39.7225 18.4667C39.9554 18.3634 40.2011 18.3118 40.4599 18.3118C40.6645 18.3118 40.8315 18.3282 40.9608 18.3611C41.0902 18.394 41.1866 18.4245 41.2501 18.4526L41.0102 19.1708C40.9679 19.1567 40.9091 19.1391 40.8338 19.118C40.7609 19.0969 40.6645 19.0863 40.5445 19.0863C40.2693 19.0863 40.0706 19.1555 39.9483 19.294C39.8283 19.4325 39.7684 19.6355 39.7684 19.903V25.8596H38.9358Z" fill="black"/>
    <path d="M47.1445 25.9722C46.6365 25.9722 46.199 25.8525 45.8321 25.6132C45.4652 25.3738 45.183 25.044 44.9854 24.6239C44.7878 24.2038 44.689 23.7239 44.689 23.1841C44.689 22.6349 44.7902 22.1502 44.9924 21.7301C45.1971 21.3077 45.4817 20.9779 45.8462 20.7409C46.2131 20.5015 46.6412 20.3818 47.1304 20.3818C47.5114 20.3818 47.8548 20.4522 48.1606 20.593C48.4663 20.7339 48.7168 20.931 48.912 21.1845C49.1073 21.4379 49.2284 21.7337 49.2754 22.0716H48.4428C48.3793 21.8252 48.2382 21.6069 48.0195 21.4168C47.8031 21.2244 47.5114 21.1281 47.1445 21.1281C46.8199 21.1281 46.5354 21.2126 46.2907 21.3816C46.0485 21.5482 45.8591 21.7841 45.7227 22.0892C45.5887 22.392 45.5216 22.7475 45.5216 23.1559C45.5216 23.5737 45.5875 23.9374 45.7192 24.2472C45.8533 24.557 46.0414 24.7976 46.2837 24.9689C46.5283 25.1402 46.8152 25.2259 47.1445 25.2259C47.3609 25.2259 47.5573 25.1884 47.7337 25.1133C47.9101 25.0382 48.0594 24.9302 48.1817 24.7894C48.3041 24.6486 48.3911 24.4796 48.4428 24.2824H49.2754C49.2284 24.6016 49.112 24.8891 48.9262 25.1449C48.7427 25.3984 48.4993 25.6002 48.1959 25.7505C47.8948 25.8983 47.5444 25.9722 47.1445 25.9722Z" fill="black"/>
    <path d="M51.3252 18.6498V25.8596H50.4926V18.6498H51.3252Z" fill="black"/>
    <path d="M55.0516 25.9722C54.5624 25.9722 54.1332 25.8561 53.7639 25.6237C53.397 25.3914 53.1101 25.0663 52.9031 24.6486C52.6985 24.2308 52.5961 23.7426 52.5961 23.1841C52.5961 22.6208 52.6985 22.1291 52.9031 21.709C53.1101 21.2889 53.397 20.9627 53.7639 20.7303C54.1332 20.498 54.5624 20.3818 55.0516 20.3818C55.5408 20.3818 55.9689 20.498 56.3358 20.7303C56.7051 20.9627 56.992 21.2889 57.1966 21.709C57.4036 22.1291 57.5071 22.6208 57.5071 23.1841C57.5071 23.7426 57.4036 24.2308 57.1966 24.6486C56.992 25.0663 56.7051 25.3914 56.3358 25.6237C55.9689 25.8561 55.5408 25.9722 55.0516 25.9722ZM55.0516 25.2259C55.4232 25.2259 55.729 25.1309 55.9689 24.9408C56.2088 24.7507 56.3864 24.5007 56.5016 24.1909C56.6169 23.8811 56.6745 23.5455 56.6745 23.1841C56.6745 22.8226 56.6169 22.4859 56.5016 22.1737C56.3864 21.8616 56.2088 21.6093 55.9689 21.4168C55.729 21.2244 55.4232 21.1281 55.0516 21.1281C54.68 21.1281 54.3742 21.2244 54.1343 21.4168C53.8944 21.6093 53.7169 21.8616 53.6016 22.1737C53.4864 22.4859 53.4287 22.8226 53.4287 23.1841C53.4287 23.5455 53.4864 23.8811 53.6016 24.1909C53.7169 24.5007 53.8944 24.7507 54.1343 24.9408C54.3742 25.1309 54.68 25.2259 55.0516 25.2259Z" fill="black"/>
    <path d="M62.1931 23.6488V20.4522H63.0258V25.8596H62.1931V24.9443H62.1367C62.0097 25.2189 61.8121 25.4524 61.544 25.6448C61.2759 25.8349 60.9372 25.93 60.5279 25.93C60.1893 25.93 59.8882 25.8561 59.6248 25.7082C59.3614 25.558 59.1544 25.3327 59.0039 25.0323C58.8533 24.7295 58.7781 24.3482 58.7781 23.8882V20.4522H59.6107V23.8318C59.6107 24.2261 59.7212 24.5406 59.9423 24.7753C60.1657 25.01 60.4503 25.1273 60.7961 25.1273C61.003 25.1273 61.2135 25.0745 61.4276 24.9689C61.644 24.8633 61.8251 24.7014 61.9709 24.4831C62.1191 24.2648 62.1931 23.9867 62.1931 23.6488Z" fill="black"/>
    <path d="M66.597 25.9722C66.1454 25.9722 65.7467 25.8584 65.401 25.6308C65.0552 25.4008 64.7847 25.0769 64.5895 24.6591C64.3943 24.239 64.2967 23.7426 64.2967 23.17C64.2967 22.602 64.3943 22.1092 64.5895 21.6914C64.7847 21.2737 65.0564 20.9509 65.4045 20.7233C65.7526 20.4956 66.1548 20.3818 66.6111 20.3818C66.9639 20.3818 67.2426 20.4405 67.4472 20.5578C67.6542 20.6728 67.8118 20.8043 67.92 20.9521C68.0305 21.0976 68.1163 21.2173 68.1775 21.3112H68.2481V18.6498H69.0807V25.8596H68.2763V25.0288H68.1775C68.1163 25.1273 68.0293 25.2517 67.9164 25.4019C67.8035 25.5498 67.6424 25.6824 67.4331 25.7997C67.2238 25.9147 66.9451 25.9722 66.597 25.9722ZM66.7099 25.2259C67.0438 25.2259 67.3261 25.1391 67.5566 24.9654C67.7871 24.7894 67.9623 24.5465 68.0822 24.2367C68.2022 23.9245 68.2622 23.5643 68.2622 23.1559C68.2622 22.7522 68.2034 22.399 68.0858 22.0963C67.9682 21.7912 67.7941 21.5541 67.5636 21.3851C67.3331 21.2138 67.0485 21.1281 66.7099 21.1281C66.3571 21.1281 66.0631 21.2185 65.8279 21.3992C65.595 21.5776 65.4198 21.8205 65.3022 22.1279C65.1869 22.433 65.1293 22.7757 65.1293 23.1559C65.1293 23.5408 65.1881 23.8905 65.3057 24.205C65.4257 24.5171 65.6021 24.7659 65.8349 24.9513C66.0701 25.1344 66.3618 25.2259 66.7099 25.2259Z" fill="black"/>
    <path d="M73.5153 25.8596V20.4522H74.3197V21.2971H74.3903C74.5032 21.0084 74.6855 20.7843 74.9371 20.6247C75.1888 20.4628 75.491 20.3818 75.8438 20.3818C76.2013 20.3818 76.4988 20.4628 76.7364 20.6247C76.9763 20.7843 77.1633 21.0084 77.2973 21.2971H77.3538C77.4926 21.0178 77.7007 20.796 77.9782 20.6318C78.2558 20.4651 78.5886 20.3818 78.9767 20.3818C79.4612 20.3818 79.8575 20.5332 80.1656 20.8359C80.4737 21.1364 80.6278 21.6046 80.6278 22.2406V25.8596H79.7952V22.2406C79.7952 21.8416 79.6858 21.5565 79.4671 21.3851C79.2483 21.2138 78.9908 21.1281 78.6944 21.1281C78.3134 21.1281 78.0182 21.2431 77.8089 21.4731C77.5996 21.7008 77.4949 21.9895 77.4949 22.3392V25.8596H76.6482V22.1561C76.6482 21.8487 76.5482 21.6011 76.3483 21.4133C76.1484 21.2232 75.8909 21.1281 75.5757 21.1281C75.3593 21.1281 75.157 21.1856 74.9689 21.3006C74.7831 21.4156 74.6325 21.5752 74.5173 21.7794C74.4044 21.9813 74.3479 22.2148 74.3479 22.48V25.8596H73.5153Z" fill="black"/>
    <path d="M82.1501 25.8596V20.4522H82.9827V25.8596H82.1501ZM82.5735 19.551C82.4112 19.551 82.2712 19.4958 82.1536 19.3855C82.0384 19.2752 81.9808 19.1426 81.9808 18.9877C81.9808 18.8328 82.0384 18.7002 82.1536 18.5899C82.2712 18.4796 82.4112 18.4245 82.5735 18.4245C82.7357 18.4245 82.8745 18.4796 82.9898 18.5899C83.1074 18.7002 83.1662 18.8328 83.1662 18.9877C83.1662 19.1426 83.1074 19.2752 82.9898 19.3855C82.8745 19.4958 82.7357 19.551 82.5735 19.551Z" fill="black"/>
    <path d="M85.3403 22.6067V25.8596H84.5077V20.4522H85.3121V21.2971H85.3826C85.5096 21.0225 85.7025 20.8019 85.9612 20.6353C86.2199 20.4663 86.5539 20.3818 86.9632 20.3818C87.3301 20.3818 87.6511 20.4569 87.9263 20.6071C88.2015 20.755 88.4155 20.9803 88.5684 21.283C88.7213 21.5835 88.7977 21.9637 88.7977 22.4237V25.8596H87.9651V22.48C87.9651 22.0552 87.8546 21.7243 87.6335 21.4872C87.4124 21.2478 87.109 21.1281 86.7233 21.1281C86.4575 21.1281 86.2199 21.1856 86.0106 21.3006C85.8036 21.4156 85.6402 21.5835 85.5202 21.8041C85.4003 22.0247 85.3403 22.2922 85.3403 22.6067Z" fill="black"/>
    <path d="M90.3192 25.8596V20.4522H91.1518V25.8596H90.3192ZM90.7425 19.551C90.5802 19.551 90.4403 19.4958 90.3227 19.3855C90.2074 19.2752 90.1498 19.1426 90.1498 18.9877C90.1498 18.8328 90.2074 18.7002 90.3227 18.5899C90.4403 18.4796 90.5802 18.4245 90.7425 18.4245C90.9048 18.4245 91.0436 18.4796 91.1588 18.5899C91.2764 18.7002 91.3352 18.8328 91.3352 18.9877C91.3352 19.1426 91.2764 19.2752 91.1588 19.3855C91.0436 19.4958 90.9048 19.551 90.7425 19.551Z" fill="black"/>
    <path d="M93.5093 22.6067V25.8596H92.6767V20.4522H93.4811V21.2971H93.5517C93.6787 21.0225 93.8715 20.8019 94.1303 20.6353C94.389 20.4663 94.723 20.3818 95.1322 20.3818C95.4991 20.3818 95.8202 20.4569 96.0954 20.6071C96.3705 20.755 96.5846 20.9803 96.7374 21.283C96.8903 21.5835 96.9668 21.9637 96.9668 22.4237V25.8596H96.1342V22.48C96.1342 22.0552 96.0236 21.7243 95.8025 21.4872C95.5815 21.2478 95.278 21.1281 94.8923 21.1281C94.6265 21.1281 94.389 21.1856 94.1797 21.3006C93.9727 21.4156 93.8092 21.5835 93.6893 21.8041C93.5693 22.0247 93.5093 22.2922 93.5093 22.6067Z" fill="black"/>
    <path d="M100.676 28C100.273 28 99.9276 27.9484 99.6383 27.8451C99.349 27.7442 99.108 27.6104 98.9151 27.4438C98.7246 27.2795 98.5729 27.1035 98.46 26.9157L99.1233 26.451C99.1985 26.5496 99.2938 26.6622 99.409 26.789C99.5243 26.9181 99.6819 27.0295 99.8818 27.1234C100.084 27.2196 100.349 27.2678 100.676 27.2678C101.113 27.2678 101.474 27.1621 101.759 26.9509C102.043 26.7397 102.186 26.4088 102.186 25.9582V24.8598H102.115C102.054 24.9584 101.967 25.0804 101.854 25.2259C101.743 25.3691 101.583 25.497 101.374 25.6096C101.167 25.7199 100.887 25.7751 100.534 25.7751C100.097 25.7751 99.7042 25.6718 99.3561 25.4653C99.0104 25.2588 98.7364 24.9584 98.5341 24.5641C98.3342 24.1698 98.2342 23.691 98.2342 23.1277C98.2342 22.5739 98.3318 22.0916 98.527 21.6808C98.7222 21.2678 98.9939 20.9486 99.342 20.7233C99.6901 20.4956 100.092 20.3818 100.549 20.3818C100.901 20.3818 101.181 20.4405 101.388 20.5578C101.598 20.6728 101.757 20.8043 101.868 20.9521C101.981 21.0976 102.068 21.2173 102.129 21.3112H102.214V20.4522H103.018V26.0145C103.018 26.4792 102.912 26.857 102.701 27.1481C102.491 27.4414 102.209 27.6562 101.854 27.7923C101.501 27.9308 101.108 28 100.676 28ZM100.647 25.0288C100.981 25.0288 101.264 24.9525 101.494 24.7999C101.725 24.6474 101.9 24.4279 102.02 24.1416C102.14 23.8553 102.2 23.5126 102.2 23.1137C102.2 22.7241 102.141 22.3802 102.023 22.0822C101.906 21.7841 101.732 21.5506 101.501 21.3816C101.271 21.2126 100.986 21.1281 100.647 21.1281C100.295 21.1281 100.001 21.2173 99.7654 21.3957C99.5325 21.5741 99.3573 21.8135 99.2397 22.1139C99.1244 22.4143 99.0668 22.7475 99.0668 23.1137C99.0668 23.4892 99.1256 23.8213 99.2432 24.1099C99.3632 24.3963 99.5396 24.6216 99.7724 24.7859C100.008 24.9478 100.299 25.0288 100.647 25.0288Z" fill="black"/>
</svg>
